<?xml version="1.0" encoding="UTF-8" standalone="no"?>
<!DOCTYPE svg PUBLIC "-//W3C//DTD SVG 1.1//EN"
 "http://www.w3.org/Graphics/SVG/1.1/DTD/svg11.dtd">
<!-- Generated by graphviz version 2.28.0 (20111028.1807)
 -->
<!-- Title: contributing Pages: 1 -->
<svg width="221pt" height="1066pt"
 viewBox="0.00 0.00 221.00 1066.00" xmlns="http://www.w3.org/2000/svg" xmlns:xlink="http://www.w3.org/1999/xlink">
<g id="graph1" class="graph" transform="scale(1 1) rotate(0) translate(4 1062)">
<title>contributing</title>
<polygon fill="white" stroke="white" points="-4,5 -4,-1062 218,-1062 218,5 -4,5"/>
<!-- problem -->
<g id="node1" class="node"><title>problem</title>
<ellipse fill="none" stroke="black" cx="154" cy="-1040" rx="48.0704" ry="18"/>
<text text-anchor="middle" x="154" y="-1034.4" font-family="Times,serif" font-size="14.00">Problem?</text>
</g>
<!-- ticket -->
<g id="node3" class="node"><title>ticket</title>
<ellipse fill="none" stroke="black" cx="108" cy="-950" rx="39.4799" ry="18"/>
<text text-anchor="middle" x="108" y="-944.4" font-family="Times,serif" font-size="14.00">Ticket?</text>
</g>
<!-- problem&#45;&gt;ticket -->
<g id="edge2" class="edge"><title>problem&#45;&gt;ticket</title>
<path fill="none" stroke="black" d="M143.784,-1022.06C140.45,-1016.37 136.792,-1009.96 133.622,-1004 129.02,-995.346 124.27,-985.737 120.128,-977.104"/>
<polygon fill="black" stroke="black" points="123.199,-975.411 115.752,-967.875 116.874,-978.41 123.199,-975.411"/>
<text text-anchor="middle" x="144.189" y="-989.4" font-family="Times,serif" font-size="14.00">Yes</text>
</g>
<!-- find_ticket -->
<g id="node5" class="node"><title>find_ticket</title>
<ellipse fill="none" stroke="black" cx="176" cy="-884" rx="35.8862" ry="29.3315"/>
<text text-anchor="middle" x="176" y="-886.8" font-family="Times,serif" font-size="14.00">Find</text>
<text text-anchor="middle" x="176" y="-870" font-family="Times,serif" font-size="14.00">Ticket</text>
</g>
<!-- problem&#45;&gt;find_ticket -->
<g id="edge4" class="edge"><title>problem&#45;&gt;find_ticket</title>
<path fill="none" stroke="black" d="M156.438,-1021.93C159.806,-998.361 165.974,-955.184 170.486,-923.596"/>
<polygon fill="black" stroke="black" points="173.997,-923.768 171.947,-913.374 167.068,-922.778 173.997,-923.768"/>
<text text-anchor="middle" x="170.555" y="-989.4" font-family="Times,serif" font-size="14.00">No</text>
</g>
<!-- create_ticket -->
<g id="node7" class="node"><title>create_ticket</title>
<ellipse fill="none" stroke="black" cx="52" cy="-806" rx="37.2181" ry="29.3315"/>
<text text-anchor="middle" x="52" y="-808.8" font-family="Times,serif" font-size="14.00">Create</text>
<text text-anchor="middle" x="52" y="-792" font-family="Times,serif" font-size="14.00">Ticket</text>
</g>
<!-- ticket&#45;&gt;create_ticket -->
<g id="edge6" class="edge"><title>ticket&#45;&gt;create_ticket</title>
<path fill="none" stroke="black" d="M101.076,-931.924C98.7768,-926.228 96.212,-919.845 93.8896,-914 84.6057,-890.633 74.3094,-864.338 66.2481,-843.663"/>
<polygon fill="black" stroke="black" points="69.4906,-842.344 62.5992,-834.297 62.968,-844.885 69.4906,-842.344"/>
<text text-anchor="middle" x="102.555" y="-878.4" font-family="Times,serif" font-size="14.00">No</text>
</g>
<!-- assign_ticket -->
<g id="node9" class="node"><title>assign_ticket</title>
<ellipse fill="none" stroke="black" cx="125" cy="-708" rx="38.2293" ry="29.3315"/>
<text text-anchor="middle" x="125" y="-710.8" font-family="Times,serif" font-size="14.00">Assign</text>
<text text-anchor="middle" x="125" y="-694" font-family="Times,serif" font-size="14.00">Ticket</text>
</g>
<!-- ticket&#45;&gt;assign_ticket -->
<g id="edge8" class="edge"><title>ticket&#45;&gt;assign_ticket</title>
<path fill="none" stroke="black" d="M109.524,-931.915C110.016,-926.219 110.551,-919.837 111,-914 115.459,-856.086 119.91,-788.911 122.558,-747.685"/>
<polygon fill="black" stroke="black" points="126.062,-747.735 123.208,-737.532 119.077,-747.288 126.062,-747.735"/>
<text text-anchor="middle" x="131.189" y="-800.4" font-family="Times,serif" font-size="14.00">Yes</text>
</g>
<!-- find_ticket&#45;&gt;assign_ticket -->
<g id="edge10" class="edge"><title>find_ticket&#45;&gt;assign_ticket</title>
<path fill="none" stroke="black" d="M169.633,-854.634C164.575,-832.949 157.036,-802.392 149,-776 146.004,-766.16 142.418,-755.634 138.943,-745.91"/>
<polygon fill="black" stroke="black" points="142.233,-744.714 135.532,-736.507 135.653,-747.101 142.233,-744.714"/>
</g>
<!-- create_ticket&#45;&gt;assign_ticket -->
<g id="edge12" class="edge"><title>create_ticket&#45;&gt;assign_ticket</title>
<path fill="none" stroke="black" d="M70.6099,-780.527C79.5501,-768.77 90.3927,-754.511 100.037,-741.828"/>
<polygon fill="black" stroke="black" points="102.903,-743.841 106.17,-733.762 97.3313,-739.604 102.903,-743.841"/>
</g>
<!-- fork -->
<g id="node13" class="node"><title>fork</title>
<ellipse fill="none" stroke="black" cx="125" cy="-610" rx="53.0444" ry="29.3315"/>
<text text-anchor="middle" x="125" y="-612.8" font-family="Times,serif" font-size="14.00">Already</text>
<text text-anchor="middle" x="125" y="-596" font-family="Times,serif" font-size="14.00">have fork?</text>
</g>
<!-- assign_ticket&#45;&gt;fork -->
<g id="edge14" class="edge"><title>assign_ticket&#45;&gt;fork</title>
<path fill="none" stroke="black" d="M125,-678.457C125,-669.446 125,-659.334 125,-649.736"/>
<polygon fill="black" stroke="black" points="128.5,-649.599 125,-639.599 121.5,-649.599 128.5,-649.599"/>
</g>
<!-- create_fork -->
<g id="node15" class="node"><title>create_fork</title>
<ellipse fill="none" stroke="black" cx="56" cy="-508" rx="56.3403" ry="18"/>
<text text-anchor="middle" x="56" y="-502.4" font-family="Times,serif" font-size="14.00">Create Fork</text>
</g>
<!-- fork&#45;&gt;create_fork -->
<g id="edge16" class="edge"><title>fork&#45;&gt;create_fork</title>
<path fill="none" stroke="black" d="M106.509,-582.202C96.2613,-567.35 83.5917,-548.988 73.5054,-534.37"/>
<polygon fill="black" stroke="black" points="76.1638,-532.06 67.6038,-525.817 70.4023,-536.036 76.1638,-532.06"/>
<text text-anchor="middle" x="101.555" y="-547.4" font-family="Times,serif" font-size="14.00">No</text>
</g>
<!-- topic_branch -->
<g id="node17" class="node"><title>topic_branch</title>
<ellipse fill="none" stroke="black" cx="119" cy="-422" rx="64.1644" ry="29.3315"/>
<text text-anchor="middle" x="119" y="-424.8" font-family="Times,serif" font-size="14.00">Create</text>
<text text-anchor="middle" x="119" y="-408" font-family="Times,serif" font-size="14.00">Topic Branch</text>
</g>
<!-- fork&#45;&gt;topic_branch -->
<g id="edge18" class="edge"><title>fork&#45;&gt;topic_branch</title>
<path fill="none" stroke="black" d="M124.076,-580.345C123.054,-548.669 121.402,-497.459 120.262,-462.11"/>
<polygon fill="black" stroke="black" points="123.746,-461.569 119.925,-451.687 116.75,-461.795 123.746,-461.569"/>
<text text-anchor="middle" x="133.189" y="-502.4" font-family="Times,serif" font-size="14.00">Yes</text>
</g>
<!-- create_fork&#45;&gt;topic_branch -->
<g id="edge20" class="edge"><title>create_fork&#45;&gt;topic_branch</title>
<path fill="none" stroke="black" d="M68.4468,-490.404C75.3049,-481.26 84.0932,-469.542 92.4127,-458.45"/>
<polygon fill="black" stroke="black" points="95.4435,-460.242 98.6436,-450.142 89.8435,-456.042 95.4435,-460.242"/>
</g>
<!-- logical_commits -->
<g id="node20" class="node"><title>logical_commits</title>
<ellipse fill="none" stroke="black" cx="119" cy="-324" rx="75.3899" ry="29.3315"/>
<text text-anchor="middle" x="119" y="-326.8" font-family="Times,serif" font-size="14.00">Create Commits</text>
<text text-anchor="middle" x="119" y="-310" font-family="Times,serif" font-size="14.00">of logical units</text>
</g>
<!-- topic_branch&#45;&gt;logical_commits -->
<g id="edge22" class="edge"><title>topic_branch&#45;&gt;logical_commits</title>
<path fill="none" stroke="black" d="M119,-392.457C119,-383.446 119,-373.334 119,-363.736"/>
<polygon fill="black" stroke="black" points="122.5,-363.599 119,-353.599 115.5,-363.599 122.5,-363.599"/>
</g>
<!-- run_tests -->
<g id="node22" class="node"><title>run_tests</title>
<ellipse fill="none" stroke="black" cx="119" cy="-226" rx="53.0941" ry="29.3315"/>
<text text-anchor="middle" x="119" y="-228.8" font-family="Times,serif" font-size="14.00">Run</text>
<text text-anchor="middle" x="119" y="-212" font-family="Times,serif" font-size="14.00">Spec Tests</text>
</g>
<!-- logical_commits&#45;&gt;run_tests -->
<g id="edge24" class="edge"><title>logical_commits&#45;&gt;run_tests</title>
<path fill="none" stroke="black" d="M119,-294.457C119,-285.446 119,-275.334 119,-265.736"/>
<polygon fill="black" stroke="black" points="122.5,-265.599 119,-255.599 115.5,-265.599 122.5,-265.599"/>
</g>
<!-- pull_request -->
<g id="node24" class="node"><title>pull_request</title>
<ellipse fill="none" stroke="black" cx="119" cy="-128" rx="61.4562" ry="29.3315"/>
<text text-anchor="middle" x="119" y="-130.8" font-family="Times,serif" font-size="14.00">Create</text>
<text text-anchor="middle" x="119" y="-114" font-family="Times,serif" font-size="14.00">Pull Request</text>
</g>
<!-- run_tests&#45;&gt;pull_request -->
<g id="edge26" class="edge"><title>run_tests&#45;&gt;pull_request</title>
<path fill="none" stroke="black" d="M119,-196.457C119,-187.446 119,-177.334 119,-167.736"/>
<polygon fill="black" stroke="black" points="122.5,-167.599 119,-157.599 115.5,-167.599 122.5,-167.599"/>
</g>
<!-- update_ticket -->
<g id="node26" class="node"><title>update_ticket</title>
<ellipse fill="none" stroke="black" cx="119" cy="-30" rx="81.568" ry="29.3315"/>
<text text-anchor="middle" x="119" y="-32.8" font-family="Times,serif" font-size="14.00">Update Ticket</text>
<text text-anchor="middle" x="119" y="-16" font-family="Times,serif" font-size="14.00">with Pull Request</text>
</g>
<!-- pull_request&#45;&gt;update_ticket -->
<g id="edge28" class="edge"><title>pull_request&#45;&gt;update_ticket</title>
<path fill="none" stroke="black" d="M119,-98.4568C119,-89.446 119,-79.3342 119,-69.736"/>
<polygon fill="black" stroke="black" points="122.5,-69.599 119,-59.599 115.5,-69.5991 122.5,-69.599"/>
</g>
</g>
</svg>
